<mxfile host="app.diagrams.net" agent="Mozilla/5.0 (Windows NT 10.0; Win64; x64) AppleWebKit/537.36 (KHTML, like Gecko) Chrome/130.0.0.0 Safari/537.36" version="24.8.6">
  <diagram name="Page-1" id="kIwjQOdmh0mfcD-IcUbJ">
    <mxGraphModel dx="600" dy="298" grid="1" gridSize="10" guides="1" tooltips="1" connect="1" arrows="1" fold="1" page="1" pageScale="1" pageWidth="850" pageHeight="1100" math="0" shadow="0">
      <root>
        <mxCell id="0" />
        <mxCell id="1" parent="0" />
        <mxCell id="C5rJJYKp-H_HlP5infRR-5" value="" style="edgeStyle=orthogonalEdgeStyle;rounded=0;orthogonalLoop=1;jettySize=auto;html=1;" edge="1" parent="1" source="C5rJJYKp-H_HlP5infRR-1" target="C5rJJYKp-H_HlP5infRR-2">
          <mxGeometry relative="1" as="geometry" />
        </mxCell>
        <mxCell id="C5rJJYKp-H_HlP5infRR-1" value="Початок" style="ellipse;whiteSpace=wrap;html=1;" vertex="1" parent="1">
          <mxGeometry x="350" y="50" width="120" height="50" as="geometry" />
        </mxCell>
        <mxCell id="C5rJJYKp-H_HlP5infRR-4" value="" style="edgeStyle=orthogonalEdgeStyle;rounded=0;orthogonalLoop=1;jettySize=auto;html=1;" edge="1" parent="1" source="C5rJJYKp-H_HlP5infRR-2" target="C5rJJYKp-H_HlP5infRR-3">
          <mxGeometry relative="1" as="geometry" />
        </mxCell>
        <mxCell id="C5rJJYKp-H_HlP5infRR-2" value="Ініціалізуємо 3 масиви для кожної сторони трикутника" style="rounded=1;whiteSpace=wrap;html=1;" vertex="1" parent="1">
          <mxGeometry x="350" y="150" width="120" height="60" as="geometry" />
        </mxCell>
        <mxCell id="C5rJJYKp-H_HlP5infRR-8" value="" style="edgeStyle=orthogonalEdgeStyle;rounded=0;orthogonalLoop=1;jettySize=auto;html=1;" edge="1" parent="1" source="C5rJJYKp-H_HlP5infRR-3" target="C5rJJYKp-H_HlP5infRR-6">
          <mxGeometry relative="1" as="geometry" />
        </mxCell>
        <mxCell id="C5rJJYKp-H_HlP5infRR-3" value="Приймаємо сторони&amp;nbsp;&lt;div&gt;від користувача&lt;/div&gt;" style="shape=parallelogram;perimeter=parallelogramPerimeter;whiteSpace=wrap;html=1;fixedSize=1;" vertex="1" parent="1">
          <mxGeometry x="330" y="260" width="160" height="60" as="geometry" />
        </mxCell>
        <mxCell id="C5rJJYKp-H_HlP5infRR-9" value="" style="edgeStyle=orthogonalEdgeStyle;rounded=0;orthogonalLoop=1;jettySize=auto;html=1;" edge="1" parent="1" source="C5rJJYKp-H_HlP5infRR-6" target="C5rJJYKp-H_HlP5infRR-7">
          <mxGeometry relative="1" as="geometry" />
        </mxCell>
        <mxCell id="C5rJJYKp-H_HlP5infRR-6" value="Знакохимо до якої сторони опущена найбільша висота в кожному трикутнику" style="rounded=1;whiteSpace=wrap;html=1;" vertex="1" parent="1">
          <mxGeometry x="350" y="360" width="120" height="60" as="geometry" />
        </mxCell>
        <mxCell id="C5rJJYKp-H_HlP5infRR-11" value="" style="edgeStyle=orthogonalEdgeStyle;rounded=0;orthogonalLoop=1;jettySize=auto;html=1;" edge="1" parent="1" source="C5rJJYKp-H_HlP5infRR-7" target="C5rJJYKp-H_HlP5infRR-10">
          <mxGeometry relative="1" as="geometry" />
        </mxCell>
        <mxCell id="C5rJJYKp-H_HlP5infRR-7" value="Виводимо отриману відповідь" style="shape=parallelogram;perimeter=parallelogramPerimeter;whiteSpace=wrap;html=1;fixedSize=1;" vertex="1" parent="1">
          <mxGeometry x="335" y="470" width="150" height="60" as="geometry" />
        </mxCell>
        <mxCell id="C5rJJYKp-H_HlP5infRR-10" value="Кінець" style="ellipse;whiteSpace=wrap;html=1;" vertex="1" parent="1">
          <mxGeometry x="350" y="570" width="120" height="50" as="geometry" />
        </mxCell>
      </root>
    </mxGraphModel>
  </diagram>
</mxfile>
